<!-- Generator: Adobe Illustrator 23.0.0, SVG Export Plug-In  -->
<svg version="1.1" xmlns="http://www.w3.org/2000/svg" xmlns:xlink="http://www.w3.org/1999/xlink" x="0px" y="0px" width="20.77px"
	 height="21.37px" viewBox="0 0 20.77 21.37" style="enable-background:new 0 0 20.77 21.37;" xml:space="preserve">
<style type="text/css">
	.st0{fill:none;stroke:#000000;stroke-width:0.5;stroke-miterlimit:10;}
</style>
<defs>
</defs>
<g>
	<path class="st0" d="M4.21,7.27H2.86c-1.44,0-2.61,1.17-2.61,2.61v8.62c0,1.44,1.17,2.61,2.61,2.61h15.04
		c1.44,0,2.61-1.17,2.61-2.61V9.89c0-1.44-1.17-2.61-2.61-2.61h-1.35"/>
	<path class="st0" d="M16.56,4.23c0-2.2-1.78-3.98-3.98-3.98H8.2c-2.2,0-3.98,1.78-3.98,3.98v3.04h12.35V4.23z"/>
</g>
<path d="M11.04,12.89c0-0.36-0.29-0.65-0.65-0.65s-0.65,0.29-0.65,0.65c0,0.27,0.17,0.5,0.4,0.6v3.43c0,0.14,0.11,0.25,0.25,0.25
	s0.25-0.11,0.25-0.25v-3.43C10.87,13.39,11.04,13.16,11.04,12.89z"/>
</svg>
