<svg id="图层_1" data-name="图层 1" xmlns="http://www.w3.org/2000/svg" viewBox="0 0 42.89 42.89"><defs><style>.cls-1{fill:none;}.cls-2{fill:#666;}.cls-3{fill:#7f7f7f;}.cls-4{fill:#999;}.cls-5{fill:#b2b2b2;}</style></defs><title>未标题-4</title><rect class="cls-1" width="42.89" height="42.89"/><path class="cls-2" d="M974.3,547.35H951.14a3.66,3.66,0,0,0,0,7.31H974.3a3.66,3.66,0,1,0,0-7.31Zm-23.16,4.94a1.29,1.29,0,1,1,1.29-1.29A1.29,1.29,0,0,1,951.14,552.29Z" transform="translate(-941.28 -517.98)"/><path class="cls-3" d="M974.37,537.6a3.66,3.66,0,0,0-5-1.34l-20,11.58a3.65,3.65,0,0,0,3.65,6.33L973,542.59A3.66,3.66,0,0,0,974.37,537.6Zm-23.23,14.69a1.29,1.29,0,1,1,1.29-1.29A1.29,1.29,0,0,1,951.14,552.29Z" transform="translate(-941.28 -517.98)"/><path class="cls-4" d="M964.55,527.78h0a3.65,3.65,0,0,0-5,1.34L948,549.18a3.65,3.65,0,1,0,6.33,3.65l11.58-20.05A3.66,3.66,0,0,0,964.55,527.78Zm-13.41,24.51a1.29,1.29,0,1,1,1.29-1.29A1.29,1.29,0,0,1,951.14,552.29Z" transform="translate(-941.28 -517.98)"/><path class="cls-5" d="M951.14,524.19a3.66,3.66,0,0,0-3.65,3.66V551a3.66,3.66,0,1,0,7.31,0V527.85A3.66,3.66,0,0,0,951.14,524.19Zm0,28.1a1.29,1.29,0,1,1,1.29-1.29A1.29,1.29,0,0,1,951.14,552.29Z" transform="translate(-941.28 -517.98)"/></svg>