<svg id="图层_1" data-name="图层 1" xmlns="http://www.w3.org/2000/svg" viewBox="0 0 42.89 42.89"><defs><style>.cls-1,.cls-2,.cls-3,.cls-4,.cls-5{fill:none;}.cls-2{stroke:#7f7f7f;}.cls-2,.cls-3,.cls-4,.cls-5{stroke-linecap:round;stroke-width:2px;}.cls-2,.cls-3,.cls-4{stroke-miterlimit:10;}.cls-3,.cls-4{stroke:#b2b2b2;}.cls-4{stroke-dasharray:4.33 4.33;}.cls-5{stroke:#999;stroke-linejoin:round;}</style></defs><title>Lock - 副本</title><rect class="cls-1" width="42.89" height="42.89"/><path class="cls-2" d="M36.68,36.68h0A4.28,4.28,0,0,1,32.4,32.4V10.49a4.28,4.28,0,0,1,4.28-4.28h0"/><path class="cls-3" d="M6.21,6.21h0a4.23,4.23,0,0,1,2.36.71"/><path class="cls-4" d="M10.49,10.61V32.4a4.34,4.34,0,0,1-.48,2"/><path class="cls-3" d="M8.57,36a4.23,4.23,0,0,1-2.36.71h0"/><line class="cls-5" x1="15.55" y1="21.44" x2="27.33" y2="21.44"/><polyline class="cls-5" points="21.68 15.8 27.33 21.45 21.68 27.09"/></svg>