<svg id="图层_1" data-name="图层 1" xmlns="http://www.w3.org/2000/svg" viewBox="0 0 42.89 42.89"><defs><style>.cls-1,.cls-2,.cls-3,.cls-4,.cls-5{fill:none;}.cls-2{stroke:#7f7f7f;}.cls-2,.cls-3,.cls-4,.cls-5{stroke-linecap:round;stroke-width:2px;}.cls-2,.cls-3,.cls-4{stroke-miterlimit:10;}.cls-3,.cls-4{stroke:#b2b2b2;}.cls-4{stroke-dasharray:4.33 4.33;}.cls-5{stroke:#999;stroke-linejoin:round;}</style></defs><title>Lock - 副本</title><rect class="cls-1" width="42.89" height="42.89"/><path class="cls-2" d="M36.68,6.21h0a4.28,4.28,0,0,1-4.28,4.28H10.49A4.28,4.28,0,0,1,6.21,6.21h0"/><path class="cls-3" d="M6.21,36.68h0a4.23,4.23,0,0,1,.71-2.36"/><path class="cls-4" d="M10.61,32.4H32.4a4.22,4.22,0,0,1,2,.48"/><path class="cls-3" d="M36,34.32a4.23,4.23,0,0,1,.71,2.36h0"/><line class="cls-5" x1="21.44" y1="27.33" x2="21.44" y2="15.56"/><polyline class="cls-5" points="15.79 21.2 21.44 15.55 27.09 21.2"/></svg>