<svg id="图层_1" data-name="图层 1" xmlns="http://www.w3.org/2000/svg" viewBox="0 0 42.89 42.89"><defs><style>.cls-1,.cls-5{fill:none;}.cls-2{fill:#999;}.cls-3{fill:#7f7f7f;}.cls-4{fill:#b2b2b2;}.cls-5{stroke:#666;stroke-linecap:round;stroke-linejoin:round;stroke-width:2px;}</style></defs><title>未标题-4</title><rect class="cls-1" width="42.89" height="42.89"/><path class="cls-2" d="M9.12,10.64H33.78a0,0,0,0,1,0,0v24a2,2,0,0,1-2,2H11.12a2,2,0,0,1-2-2v-24A0,0,0,0,1,9.12,10.64Z"/><path class="cls-3" d="M9.12,33.19H33.78a0,0,0,0,1,0,0v1.49a2,2,0,0,1-2,2H11.12a2,2,0,0,1-2-2V33.19A0,0,0,0,1,9.12,33.19Z"/><rect class="cls-4" x="6.21" y="6.21" width="30.47" height="4.43" rx="2.21"/><circle class="cls-3" cx="21.45" cy="13.81" r="2.17"/><line class="cls-5" x1="21.45" y1="13.81" x2="34.72" y2="27.08"/></svg>