<svg id="图层_1" data-name="图层 1" xmlns="http://www.w3.org/2000/svg" viewBox="0 0 42.89 42.89"><defs><style>.cls-1{fill:#666;}.cls-2,.cls-3{fill:none;}.cls-3{stroke:#606060;stroke-linecap:round;stroke-miterlimit:10;stroke-width:2px;}</style></defs><title>未标题-3</title><path class="cls-1" d="M970.86,530.37a1,1,0,0,0-1.79.74V543.9a4.92,4.92,0,0,1-.78,2.75,5.35,5.35,0,0,1-2.15,1.86,7,7,0,0,1-3.14.67,7.27,7.27,0,0,1-3.2-.67,5.31,5.31,0,0,1-2.18-1.86,4.92,4.92,0,0,1-.78-2.75V531.11a1,1,0,0,0-.29-.74,1.09,1.09,0,0,0-1.48,0,1,1,0,0,0-.29.74V543.9a6.86,6.86,0,0,0,1,3.75,7.12,7.12,0,0,0,2.91,2.56,9.41,9.41,0,0,0,4.27.93,9.22,9.22,0,0,0,4.21-.93,7.16,7.16,0,0,0,2.88-2.56,6.86,6.86,0,0,0,1-3.75V531.11A1.05,1.05,0,0,0,970.86,530.37Z" transform="translate(-941.51 -520.98)"/><rect class="cls-2" width="42.89" height="42.89"/><line class="cls-3" x1="12.57" y1="33.51" x2="30.33" y2="33.51"/></svg>