<svg id="图层_1" data-name="图层 1" xmlns="http://www.w3.org/2000/svg" viewBox="0 0 42.89 42.89"><defs><style>.cls-1{fill:none;}.cls-2{fill:#666;}</style></defs><title>未标题-3</title><rect class="cls-1" width="42.89" height="42.89"/><polygon class="cls-2" points="36.68 29.61 36.68 26.01 26.01 36.68 29.61 36.68 36.68 29.61"/><polygon class="cls-2" points="16.89 6.21 13.29 6.21 6.21 13.29 6.21 16.89 16.89 6.21"/><polygon class="cls-2" points="11.61 36.68 15.21 36.68 36.68 15.21 36.68 11.61 11.61 36.68"/><polygon class="cls-2" points="36.68 22.41 36.68 18.81 18.81 36.68 22.41 36.68 36.68 22.41"/><polygon class="cls-2" points="36.68 33.21 33.21 36.68 36.68 36.68 36.68 33.21"/><polygon class="cls-2" points="36.68 8.01 36.68 6.21 34.88 6.21 6.21 34.88 6.21 36.68 8.01 36.68 36.68 8.01"/><polygon class="cls-2" points="31.28 6.21 27.68 6.21 6.21 27.68 6.21 31.28 31.28 6.21"/><polygon class="cls-2" points="24.08 6.21 20.48 6.21 6.21 20.48 6.21 24.08 24.08 6.21"/><polygon class="cls-2" points="6.21 9.69 9.69 6.21 6.21 6.21 6.21 9.69"/></svg>