<svg xmlns="http://www.w3.org/2000/svg" viewBox="0 0 16.62 18.99"><defs><style>.cls-1{fill:#b2b2b2;}.cls-2{fill:#7f7f7f;}.cls-3{fill:#bfbfbf;}.cls-4{fill:#999;}</style></defs><title>图层 14</title><g id="图层_2" data-name="图层 2"><g id="图层_14" data-name="图层 14"><g id="copy"><g id="copy-2" data-name="copy"><g id="copy-3" data-name="copy"><rect class="cls-1" x="0.75" y="3.85" width="12.02" height="14.4" rx="1.4"/><path class="cls-2" d="M11.37,19H2.15A2.15,2.15,0,0,1,0,16.84V5.25A2.15,2.15,0,0,1,2.15,3.1h9.22a2.15,2.15,0,0,1,2.15,2.15V16.84A2.15,2.15,0,0,1,11.37,19ZM2.15,4.6a.65.65,0,0,0-.65.65V16.84a.65.65,0,0,0,.65.65h9.22a.65.65,0,0,0,.65-.65V5.25a.65.65,0,0,0-.65-.65Z"/></g></g><g id="copy-4" data-name="copy"><g id="copy-5" data-name="copy"><rect class="cls-3" x="3.85" y="0.75" width="12.02" height="14.4" rx="1.4"/><path class="cls-4" d="M14.47,15.9H5.25A2.15,2.15,0,0,1,3.1,13.75V2.15A2.15,2.15,0,0,1,5.25,0h9.22a2.15,2.15,0,0,1,2.15,2.15v11.6A2.16,2.16,0,0,1,14.47,15.9ZM5.25,1.5a.65.65,0,0,0-.65.65v11.6a.65.65,0,0,0,.65.65h9.22a.65.65,0,0,0,.65-.65V2.15a.65.65,0,0,0-.65-.65Z"/></g></g></g></g></g></svg>