<svg xmlns="http://www.w3.org/2000/svg" viewBox="0 0 19.53 19.53"><defs><style>.cls-1{fill:#d8d8d8;}.cls-2{fill:#b5b5b5;}</style></defs><title>图层 2</title><g id="图层_2" data-name="图层 2"><g id="图层_2-2" data-name="图层 2"><g id="clock"><circle class="cls-1" cx="9.76" cy="9.76" r="8.76"/><path class="cls-2" d="M9.76,19.53a9.77,9.77,0,1,1,9.77-9.77A9.78,9.78,0,0,1,9.76,19.53ZM9.76,2a7.77,7.77,0,1,0,7.77,7.76A7.77,7.77,0,0,0,9.76,2Z"/><path class="cls-2" d="M13.92,10.94H9.58a1,1,0,0,1-1-1V5.61a1,1,0,0,1,2,0V8.94h3.34a1,1,0,0,1,0,2Z"/></g></g></g></svg>