<svg xmlns="http://www.w3.org/2000/svg" viewBox="0 0 16.19 16.19"><defs><style>.cls-1{fill:#b5b5b5;}.cls-2{fill:#7e7e7f;}</style></defs><title>图层 9</title><g id="图层_2" data-name="图层 2"><g id="图层_9" data-name="图层 9"><g id="link"><path class="cls-1" d="M5.88,11.31A1,1,0,0,1,5.17,9.6L9.6,5.17a1,1,0,0,1,1.41,0,1,1,0,0,1,0,1.42L6.59,11A1,1,0,0,1,5.88,11.31Z"/><path class="cls-2" d="M4.92,16.19a4.92,4.92,0,0,1-3.48-8.4L2.88,6.35a1,1,0,0,1,1.41,0,1,1,0,0,1,0,1.42L2.85,9.21a2.92,2.92,0,0,0,0,4.12,3,3,0,0,0,4.13,0l1.44-1.44a1,1,0,0,1,1.41,0,1,1,0,0,1,0,1.42L8.39,14.75A4.91,4.91,0,0,1,4.92,16.19Z"/><path class="cls-2" d="M12.6,10.12a1,1,0,0,1-.71-.29,1,1,0,0,1,0-1.41L13.33,7a2.91,2.91,0,0,0,0-4.13,3,3,0,0,0-4.12,0L7.77,4.29a1,1,0,0,1-1.42,0,1,1,0,0,1,0-1.41L7.79,1.44a4.92,4.92,0,1,1,7,7L13.31,9.83A1,1,0,0,1,12.6,10.12Z"/></g></g></g></svg>