<svg xmlns="http://www.w3.org/2000/svg" viewBox="0 0 16.65 18.96"><defs><style>.cls-1{fill:#d8d8d8;}.cls-2{fill:#7f7f7f;}.cls-3{fill:#999;}</style></defs><title>图层 13</title><g id="图层_2" data-name="图层 2"><g id="图层_13" data-name="图层 13"><g id="copy"><g id="copy-2" data-name="copy"><g id="copy-3" data-name="copy"><rect class="cls-1" x="0.75" y="4.21" width="11.69" height="14" rx="1.4"/><path class="cls-2" d="M11,19H2.15A2.15,2.15,0,0,1,0,16.81V5.61A2.15,2.15,0,0,1,2.15,3.46H11a2.15,2.15,0,0,1,2.15,2.15v11.2A2.15,2.15,0,0,1,11,19ZM2.15,5a.65.65,0,0,0-.65.65v11.2a.65.65,0,0,0,.65.65H11a.65.65,0,0,0,.65-.65V5.61A.65.65,0,0,0,11,5Z"/></g></g><g id="copy-4" data-name="copy"><g id="copy-5" data-name="copy"><rect class="cls-1" x="4.21" y="0.75" width="11.69" height="14" rx="1.4"/><path class="cls-3" d="M14.5,15.5H5.61a2.15,2.15,0,0,1-2.15-2.15V2.15A2.15,2.15,0,0,1,5.61,0H14.5a2.15,2.15,0,0,1,2.15,2.15v11.2A2.15,2.15,0,0,1,14.5,15.5ZM5.61,1.5A.65.65,0,0,0,5,2.15v11.2a.65.65,0,0,0,.65.65H14.5a.65.65,0,0,0,.65-.65V2.15a.65.65,0,0,0-.65-.65Z"/></g></g></g></g></g></svg>