<svg xmlns="http://www.w3.org/2000/svg" viewBox="0 0 15.45 14.19"><defs><style>.cls-1{fill:#7e7e7f;}.cls-2{fill:#b5b5b5;}.cls-3{fill:#a5a5a5;}</style></defs><title>图层 7</title><g id="图层_2" data-name="图层 2"><g id="图层_7" data-name="图层 7"><g id="date"><rect class="cls-1" y="2.04" width="15.45" height="12.14" rx="1.4"/><path class="cls-2" d="M3.65,4.08a1,1,0,0,1-1-1V1a1,1,0,0,1,2,0V3.08A1,1,0,0,1,3.65,4.08Z"/><path class="cls-2" d="M11.79,4.08a1,1,0,0,1-1-1V1a1,1,0,0,1,2,0V3.08A1,1,0,0,1,11.79,4.08Z"/><rect class="cls-2" x="1.09" y="5" width="13.28" height="8.13" rx="0.95"/><rect class="cls-3" x="2.58" y="6.35" width="2.14" height="2.14" rx="0.56"/></g></g></g></svg>