<svg xmlns="http://www.w3.org/2000/svg" viewBox="0 0 16.28 16.29"><defs><style>.cls-1{fill:#b5b5b5;}.cls-2{fill:#7e7e7f;}</style></defs><title>图层 8</title><g id="图层_2" data-name="图层 2"><g id="图层_8" data-name="图层 8"><g id="link2"><path class="cls-1" d="M9.05,11.47a4.23,4.23,0,0,1-3-1.24h0a4.24,4.24,0,0,1,0-6l3-3a4.24,4.24,0,0,1,6,0,4.24,4.24,0,0,1,0,6l-3,3A4.22,4.22,0,0,1,9.05,11.47ZM7.47,8.81a2.22,2.22,0,0,0,3.16,0l3-3a2.24,2.24,0,0,0,0-3.16,2.3,2.3,0,0,0-3.16,0l-3,3A2.24,2.24,0,0,0,7.47,8.81Z"/><path class="cls-2" d="M4.23,16.29a4.23,4.23,0,0,1-3-1.24h0a4.24,4.24,0,0,1,0-6l3-3a4.24,4.24,0,0,1,6,6l-3,3A4.26,4.26,0,0,1,4.23,16.29ZM2.65,13.63a2.24,2.24,0,0,0,3.16,0l3-3a2.22,2.22,0,0,0,.66-1.58,2.26,2.26,0,0,0-.66-1.58,2.3,2.3,0,0,0-3.16,0l-3,3A2.24,2.24,0,0,0,2.65,13.63Z"/><path class="cls-1" d="M9.05,11.47a4.23,4.23,0,0,1-3-1.24,1,1,0,0,1,0-1.42,1,1,0,0,1,1.41,0,2.22,2.22,0,0,0,3.16,0l3-3a1,1,0,0,1,1.42,1.42l-3,3A4.22,4.22,0,0,1,9.05,11.47Z"/></g></g></g></svg>