<svg xmlns="http://www.w3.org/2000/svg" viewBox="0 0 19.52 19.52"><defs><style>.cls-1{fill:#b5b5b5;}</style></defs><title>图层 5</title><g id="图层_2" data-name="图层 2"><g id="图层_5" data-name="图层 5"><g id="Updata"><path class="cls-1" d="M9.76,19.52A9.76,9.76,0,1,1,17,3.21a1,1,0,0,1-.08,1.42,1,1,0,0,1-1.41-.08,7.76,7.76,0,1,0,2,5.21,1,1,0,0,1,2,0A9.77,9.77,0,0,1,9.76,19.52Z"/><path class="cls-1" d="M18,2.15a.48.48,0,0,0-.81-.28L15.71,3.32,14.26,4.77a.47.47,0,0,0,.28.8L17.85,6a.48.48,0,0,0,.53-.53Z"/><path class="cls-1" d="M12.09,13.78a1,1,0,0,1-.71-.3L8.45,10.55a1,1,0,0,1-.3-.71V5.69a1,1,0,1,1,2,0V9.42l2.65,2.65a1,1,0,0,1,0,1.41A1,1,0,0,1,12.09,13.78Z"/></g></g></g></svg>