<?xml version="1.0" encoding="utf-8"?>
<!-- Generator: Adobe Illustrator 23.0.0, SVG Export Plug-In . SVG Version: 6.00 Build 0)  -->
<svg version="1.1" id="图层_1" xmlns="http://www.w3.org/2000/svg" xmlns:xlink="http://www.w3.org/1999/xlink" x="0px" y="0px"
	 viewBox="0 0 42.9 42.9" style="enable-background:new 0 0 42.9 42.9;" xml:space="preserve">
<style type="text/css">
	.st0{fill:none;}
	.st1{fill:#999999;}
</style>
<rect y="0" class="st0" width="42.9" height="42.9"/>
<path class="st1" d="M15.8,21.4c0,0.6-0.4,1-1,1h-4.5c-0.6,0-1-0.4-1-1s0.4-1,1-1h4.5C15.4,20.4,15.8,20.8,15.8,21.4z M23.8,20.4
	h-4.7c-0.5,0-0.9,0.4-0.9,1s0.4,1,0.9,1h4.7c0.5,0,0.9-0.4,0.9-1S24.3,20.4,23.8,20.4z M32.5,20.4H28c-0.6,0-1,0.4-1,1s0.4,1,1,1
	h4.5c0.6,0,1-0.4,1-1S33.1,20.4,32.5,20.4z"/>
</svg>
