<?xml version="1.0" encoding="utf-8"?>
<!-- Generator: Adobe Illustrator 23.0.0, SVG Export Plug-In . SVG Version: 6.00 Build 0)  -->
<svg version="1.1" id="图层_1" xmlns="http://www.w3.org/2000/svg" xmlns:xlink="http://www.w3.org/1999/xlink" x="0px" y="0px"
	 viewBox="0 0 42.9 42.9" style="enable-background:new 0 0 42.9 42.9;" xml:space="preserve">
<style type="text/css">
	.st0{fill:none;}
	.st1{fill:#999999;}
</style>
<rect y="0" class="st0" width="42.9" height="42.9"/>
<path class="st1" d="M11,20.7c0.2,0.2,0.3,0.5,0.3,0.7c0,0.1,0,0.1,0,0.2c0,0.1,0,0.1-0.1,0.2c0,0.1,0,0.1-0.1,0.2
	c0,0.1-0.1,0.1-0.1,0.2c-0.1,0.1-0.2,0.2-0.3,0.2c-0.1,0.1-0.3,0.1-0.4,0.1s-0.3,0-0.4-0.1c-0.1,0-0.2-0.1-0.3-0.2
	c0,0-0.1-0.1-0.1-0.2c0-0.1-0.1-0.1-0.1-0.2c0-0.1-0.1-0.1-0.1-0.2c0-0.1,0-0.1,0-0.2c0-0.3,0.1-0.5,0.3-0.7
	C10,20.3,10.6,20.3,11,20.7z M16.7,20.4c-0.6,0-1,0.5-1,1c0,0.6,0.4,1,1,1c0.5,0,1-0.4,1-1C17.7,20.8,17.2,20.4,16.7,20.4z
	 M13.5,20.4c-0.6,0-1,0.5-1,1c0,0.6,0.4,1,1,1c0.5,0,1-0.4,1-1C14.5,20.8,14,20.4,13.5,20.4z M29.4,20.4c-0.6,0-1,0.5-1,1
	c0,0.6,0.4,1,1,1c0.6,0,1-0.4,1-1C30.4,20.8,29.9,20.4,29.4,20.4z M19.8,20.4c-0.5,0-1,0.5-1,1c0,0.6,0.5,1,1,1s1-0.4,1-1
	C20.8,20.8,20.4,20.4,19.8,20.4z M26.2,20.4c-0.6,0-1,0.5-1,1c0,0.6,0.4,1,1,1c0.6,0,1-0.4,1-1C27.2,20.8,26.7,20.4,26.2,20.4z
	 M23,20.4c-0.5,0-1,0.5-1,1c0,0.6,0.5,1,1,1c0.6,0,1-0.4,1-1C24,20.8,23.6,20.4,23,20.4z M33.4,21c0-0.1-0.1-0.2-0.2-0.3
	c0,0-0.1-0.1-0.2-0.1c0,0-0.1-0.1-0.2-0.1c-0.1,0-0.1,0-0.2-0.1c-0.3-0.1-0.7,0-0.9,0.3c-0.2,0.2-0.3,0.5-0.3,0.7
	c0,0.3,0.1,0.5,0.3,0.7c0.2,0.2,0.5,0.3,0.7,0.3c0.1,0,0.1,0,0.2,0c0.1,0,0.1,0,0.2-0.1c0.1,0,0.1,0,0.2-0.1c0.1,0,0.1-0.1,0.2-0.1
	c0.2-0.2,0.3-0.4,0.3-0.7C33.5,21.3,33.5,21.1,33.4,21z"/>
</svg>
