<?xml version="1.0" encoding="utf-8"?>
<!-- Generator: Adobe Illustrator 23.0.0, SVG Export Plug-In . SVG Version: 6.00 Build 0)  -->
<svg version="1.1" id="图层_1" xmlns="http://www.w3.org/2000/svg" xmlns:xlink="http://www.w3.org/1999/xlink" x="0px" y="0px"
	 viewBox="0 0 42.9 42.9" style="enable-background:new 0 0 42.9 42.9;" xml:space="preserve">
<style type="text/css">
	.st0{fill:none;}
	.st1{fill:none;stroke:#999999;stroke-width:2;stroke-linejoin:round;}
</style>
<rect y="0" class="st0" width="42.9" height="42.9"/>
<path class="st1" d="M12.3,20h18.2c1.1,0,2,0.9,2,2v12.6c0,1.1-0.9,2-2,2H12.3c-1.1,0-2-0.9-2-2V22C10.3,20.9,11.2,20,12.3,20z"/>
<path class="st1" d="M21.5,6.2L21.5,6.2c3.5,0,6.4,2.8,6.4,6.4l0,0V20l0,0H15.1l0,0v-7.4C15.1,9.1,17.9,6.2,21.5,6.2L21.5,6.2z"/>
</svg>
