<svg id="图层_1" data-name="图层 1" xmlns="http://www.w3.org/2000/svg" viewBox="0 0 42.89 42.89"><defs><style>.cls-1,.cls-2,.cls-3,.cls-4,.cls-5{fill:none;}.cls-2{stroke:#7f7f7f;}.cls-2,.cls-3,.cls-4,.cls-5{stroke-linecap:round;stroke-width:2px;}.cls-2,.cls-3,.cls-4{stroke-miterlimit:10;}.cls-3,.cls-4{stroke:#b2b2b2;}.cls-4{stroke-dasharray:4.33 4.33;}.cls-5{stroke:#999;stroke-linejoin:round;}</style></defs><title>Lock - 副本</title><rect class="cls-1" width="42.89" height="42.89"/><path class="cls-2" d="M6.21,36.68h0a4.28,4.28,0,0,1,4.28-4.28H32.4a4.28,4.28,0,0,1,4.28,4.28h0"/><path class="cls-3" d="M36.68,6.21h0A4.23,4.23,0,0,1,36,8.57"/><path class="cls-4" d="M32.28,10.49H10.49a4.34,4.34,0,0,1-2-.48"/><path class="cls-3" d="M6.92,8.57a4.23,4.23,0,0,1-.71-2.36h0"/><line class="cls-5" x1="21.44" y1="15.56" x2="21.44" y2="27.33"/><polyline class="cls-5" points="27.09 21.69 21.44 27.34 15.79 21.69"/></svg>