<svg id="图层_1" data-name="图层 1" xmlns="http://www.w3.org/2000/svg" viewBox="0 0 42.89 42.89"><defs><style>.cls-1,.cls-5{fill:none;}.cls-2{fill:#b2b2b2;}.cls-3{fill:#999;}.cls-4{fill:#ccc;}.cls-5{stroke:#999;stroke-linecap:round;stroke-linejoin:round;stroke-width:2px;}</style></defs><title>未标题-4</title><rect class="cls-1" x="938.68" y="518.59" width="42.89" height="42.89" transform="translate(981.57 561.48) rotate(-180)"/><path class="cls-2" d="M949.8,529.22h20.66a2,2,0,0,1,2,2v24a0,0,0,0,1,0,0H947.8a0,0,0,0,1,0,0v-24A2,2,0,0,1,949.8,529.22Z" transform="translate(981.57 565.9) rotate(-180)"/><path class="cls-3" d="M949.8,551.78h20.66a2,2,0,0,1,2,2v1.49a0,0,0,0,1,0,0H947.8a0,0,0,0,1,0,0v-1.49A2,2,0,0,1,949.8,551.78Z" transform="translate(981.57 588.46) rotate(-180)"/><rect class="cls-4" x="944.89" y="524.8" width="30.47" height="4.43" rx="2.21" transform="translate(981.57 535.44) rotate(-180)"/><circle class="cls-2" cx="21.45" cy="13.81" r="2.17"/><line class="cls-5" x1="21.45" y1="13.81" x2="8.18" y2="27.08"/></svg>