<svg id="图层_1" data-name="图层 1" xmlns="http://www.w3.org/2000/svg" viewBox="0 0 42.89 42.89"><defs><style>.cls-1{fill:#666;}.cls-2{fill:none;}</style></defs><title>未标题-3</title><path class="cls-1" d="M970.11,542.53a5.82,5.82,0,0,0-3.07-1.87,5.18,5.18,0,0,0,2.12-1.8,4.58,4.58,0,0,0,.79-2.64,5.64,5.64,0,0,0-.83-3.05,5.73,5.73,0,0,0-2.29-2.07,7.1,7.1,0,0,0-3.3-.75h-6.95a1.33,1.33,0,0,0-1,.37,1.3,1.3,0,0,0-.39,1v19.79a1.28,1.28,0,0,0,.4,1,1.4,1.4,0,0,0,1,.39h7.44a7.81,7.81,0,0,0,3.73-.87,6.48,6.48,0,0,0,2.55-2.37,6.65,6.65,0,0,0,.92-3.5A5.38,5.38,0,0,0,970.11,542.53Zm-12.17-9.65h5.59a4.35,4.35,0,0,1,2.75.84,3,3,0,0,1,1.08,2.5,3.08,3.08,0,0,1-1.08,2.55,4.2,4.2,0,0,1-2.75.88h-5.59Zm10.13,15.52a3.85,3.85,0,0,1-1.62,1.42,5.37,5.37,0,0,1-2.37.49h-6.14v-8.12h6.14a5.66,5.66,0,0,1,2.37.46,3.92,3.92,0,0,1,1.62,1.32,3.74,3.74,0,0,1,.59,2.14A4.26,4.26,0,0,1,968.07,548.4Z" transform="translate(-941.11 -520.98)"/><rect class="cls-2" width="42.89" height="42.89"/></svg>