<svg id="图层_1" data-name="图层 1" xmlns="http://www.w3.org/2000/svg" viewBox="0 0 42.89 42.89"><defs><style>.cls-1{fill:#666;}.cls-2{fill:none;}</style></defs><title>未标题-3</title><path class="cls-1" d="M967.46,530.68a.94.94,0,0,0-.75-.32,1.32,1.32,0,0,0-.87.32,1.33,1.33,0,0,0-.46.81l-3.57,20.25a.93.93,0,0,0,.18.81.91.91,0,0,0,.75.32,1.31,1.31,0,0,0,.86-.32,1.33,1.33,0,0,0,.46-.81l3.57-20.25A1,1,0,0,0,967.46,530.68Z" transform="translate(-943.28 -520.98)"/><rect class="cls-2" width="42.89" height="42.89"/></svg>