<svg id="图层_1" data-name="图层 1" xmlns="http://www.w3.org/2000/svg" viewBox="0 0 42.89 42.89"><defs><style>.cls-1{fill:#666;}.cls-2{fill:none;}</style></defs><title>未标题-3</title><path class="cls-1" d="M967.79,544.21l-7.62-18.06a1,1,0,0,0-1-.69,1,1,0,0,0-1,.69l-7.59,18a1,1,0,0,0,.05,1,.89.89,0,0,0,.85.5,1,1,0,0,0,.56-.16,1,1,0,0,0,.37-.46l1.74-4.19h10l1.73,4.19a1.14,1.14,0,0,0,.4.46,1,1,0,0,0,.55.16,1,1,0,0,0,.91-1.42Zm-12.86-5.12,4.3-10.34,4.26,10.34Z" transform="translate(-937.77 -518.98)"/><rect class="cls-2" width="42.89" height="42.89"/><rect class="cls-1" x="10.11" y="30.97" width="22.67" height="5.67"/></svg>